<?xml version="1.0" encoding="UTF-8"?>
<svg id="Sedna" xmlns="http://www.w3.org/2000/svg" version="1.1" viewBox="0 0 957.54 324.03">
  <!-- Generator: Adobe Illustrator 30.1.0, SVG Export Plug-In . SVG Version: 2.1.1 Build 136)  -->
  <defs>
    <style>
      .st0 {
        fill: none;
      }

      .st1 {
        fill: #96f;
      }
    </style>
  </defs>
  <rect class="st0" y="0" width="957.54" height="324.03"/>
  <path d="M107.84,183.75h13.39c1.37,13.55,14.46,22.37,33.18,22.37,15.98,0,24.81-6.7,24.81-17.81,0-9.74-7-14.31-19.63-18.11l-18.42-5.78c-.76-.15-3.81-1.22-9.44-2.89-11.26-3.5-20.55-12.63-20.55-25.27,0-16.74,13.85-28.46,36.23-28.46,24.51,0,39.42,12.48,41.1,35.01h-13.24c-1.07-15.07-11.42-23.44-28.46-23.44-13.55,0-22.83,6.09-22.83,16.29,0,3.5,1.07,6.39,3.2,8.52,4.11,4.41,6.54,4.87,18.11,8.52l17.2,5.33c6.09,1.98,11.11,3.8,15.22,5.78,8.07,3.96,14.61,11.57,14.61,23.9,0,18.72-14.31,29.98-37.9,29.98-27.4,0-45.36-14.31-46.58-33.94h0Z"/>
  <path d="M199.97,175.99c0-8.83,1.67-16.44,5.18-22.98,6.85-12.79,19.18-19.48,33.03-19.48,22.37,0,36.53,15.22,36.99,40.79v3.5h-62.56c.76,17.5,11.11,28.92,27.09,28.92,11.42,0,19.63-5.78,22.83-16.13h12.33c-3.65,16.59-16.9,27.09-35.16,27.09-23.9,0-39.73-17.2-39.73-41.7h0ZM261.92,167.31c-2.28-14.15-10.96-22.83-23.74-22.83s-22.22,8.37-24.81,22.83h48.55Z"/>
  <path d="M283.39,175.23c0-24.66,14.92-41.7,36.53-41.7,12.02,0,22.22,5.18,28.16,13.85v-45.51h12.63v114.15h-11.42v-15.53c-5.48,10.5-16.29,17.2-29.22,17.2-20.85,0-36.68-16.59-36.68-42.46h0ZM348.08,174.92c0-18.57-10.96-30.59-25.27-30.59s-26.33,11.87-26.33,30.9,10.5,31.51,25.57,31.51,26.03-12.48,26.03-31.81h0Z"/>
  <path d="M373.93,216.02v-80.67h11.26v12.33c5.48-8.68,16.29-14.16,28.01-14.16,17.5,0,28.92,11.42,28.92,29.07v53.42h-12.63v-52.97c0-11.42-7.31-18.42-19.48-18.42-14,0-23.44,9.59-23.44,22.37v49.01h-12.63v.02Z"/>
  <path d="M450.46,175.23c0-24.66,14.92-41.7,36.53-41.7,12.79,0,23.74,5.94,29.38,15.68v-13.85h11.26v80.67h-12.48v-13.39c-5.63,9.29-15.83,15.07-28.01,15.07-20.85,0-36.68-16.59-36.68-42.46v-.02ZM515.15,174.92c0-18.57-10.96-30.59-25.27-30.59s-26.33,11.87-26.33,30.9,10.5,31.51,25.57,31.51,26.03-12.48,26.03-31.81h0Z"/>
  <path class="st1" d="M599,216.02h-13.7l-41.4-106.54h13.7l34.55,88.89,33.49-88.89h13.55l-40.18,106.54h0Z"/>
  <path class="st1" d="M659.73,216.02h-12.79v-106.54h15.98l37.59,91.32,37.44-91.32h16.13v106.54h-12.79v-84.32l-34.7,84.32h-12.33l-34.55-84.02v84.02h.02Z"/>
  <path class="st1" d="M764.88,183.75h13.39c1.37,13.55,14.46,22.37,33.18,22.37,15.98,0,24.81-6.7,24.81-17.81,0-9.74-7-14.31-19.63-18.11l-18.42-5.78c-.76-.15-3.81-1.22-9.44-2.89-11.26-3.5-20.55-12.63-20.55-25.27,0-16.74,13.85-28.46,36.23-28.46,24.51,0,39.42,12.48,41.1,35.01h-13.24c-1.07-15.07-11.42-23.44-28.46-23.44-13.55,0-22.83,6.09-22.83,16.29,0,3.5,1.07,6.39,3.2,8.52,4.11,4.41,6.54,4.87,18.11,8.52l17.2,5.33c6.09,1.98,11.11,3.8,15.22,5.78,8.07,3.96,14.61,11.57,14.61,23.9,0,18.72-14.31,29.98-37.9,29.98-27.4,0-45.36-14.31-46.58-33.94h0Z"/>
</svg>